<svg width="24" height="24" viewBox="0 0 24 24" fill="none" xmlns="http://www.w3.org/2000/svg">
<g id="Outlined / Action / search">
<path id="&#240;&#159;&#148;&#185; Icon Color" fill-rule="evenodd" clip-rule="evenodd" d="M15.5 13.9902H14.71L14.43 13.7202C15.41 12.5802 16 11.1002 16 9.49023C16 5.90023 13.09 2.99023 9.5 2.99023C5.91 2.99023 3 5.90023 3 9.49023C3 13.0802 5.91 15.9902 9.5 15.9902C11.11 15.9902 12.59 15.4002 13.73 14.4202L14 14.7002V15.4902L19 20.4802L20.49 18.9902L15.5 13.9902ZM9.5 13.9902C7.01 13.9902 5 11.9802 5 9.49023C5 7.00023 7.01 4.99023 9.5 4.99023C11.99 4.99023 14 7.00023 14 9.49023C14 11.9802 11.99 13.9902 9.5 13.9902Z" fill="white"/>
</g>
</svg>
